<svg width="80" height="80" viewBox="0 0 80 80" fill="none" xmlns="http://www.w3.org/2000/svg">
<path d="M15 15V65H65V15H15ZM42.2098 53.9955C42.2098 58.8616 39.3527 61.0826 35.1897 61.0826C31.4286 61.0826 29.2522 59.1406 28.1362 56.7857L31.9643 54.4754C32.7009 55.7812 33.3705 56.8862 34.9888 56.8862C36.529 56.8862 37.5112 56.2835 37.5112 53.9286V37.9576H42.2098V53.9955ZM53.3259 61.0826C48.9621 61.0826 46.1384 59.0067 44.7656 56.2835L48.5938 54.0737C49.5982 55.7143 50.9152 56.9308 53.2254 56.9308C55.1674 56.9308 56.4174 55.9598 56.4174 54.6094C56.4174 53.0022 55.1451 52.433 52.9911 51.4844L51.8192 50.9821C48.4263 49.5424 46.183 47.7232 46.183 43.8951C46.183 40.3683 48.8728 37.6897 53.058 37.6897C56.0491 37.6897 58.192 38.7277 59.7321 41.4509L56.0714 43.7946C55.2679 42.3549 54.3973 41.7857 53.0469 41.7857C51.6741 41.7857 50.8036 42.6562 50.8036 43.7946C50.8036 45.2009 51.6741 45.7701 53.6942 46.6518L54.8661 47.154C58.8616 48.8616 61.1049 50.6138 61.1049 54.5424C61.1049 58.7612 57.779 61.0826 53.3259 61.0826Z" fill="#2D2D2D"/>
</svg>
