<svg width="80" height="80" viewBox="0 0 80 80" fill="none" xmlns="http://www.w3.org/2000/svg">
<path d="M40 15C26.1895 15 15 26.1895 15 40C15 53.8105 26.1895 65 40 65C53.8105 65 65 53.8105 65 40C65 26.1895 53.8105 15 40 15ZM53.4819 29.4698C52.3256 29.5111 51.5262 28.8196 51.4889 27.7692C51.4617 26.8438 52.1623 26.4143 52.1472 25.869C52.124 25.2087 51.123 25.1815 50.8498 25.1966C46.8397 25.3266 45.9516 30.9425 44.9133 36.6734C47.0736 36.9909 48.6079 36.6008 49.4637 36.0464C50.6734 35.2651 49.127 34.4617 49.3206 33.5706C49.7238 31.7399 52.6018 31.6552 52.5464 34.1048C52.5101 35.9052 49.9335 38.3196 44.7238 37.7036C43.6391 43.7036 42.874 49.2964 38.8569 54.0061C35.9335 57.4798 32.9698 58.0202 31.6411 58.0645C29.1562 58.1502 27.5081 56.8236 27.4496 55.0564C27.3931 53.3427 28.9062 52.4093 29.9002 52.376C32.1069 52.3004 32.9365 54.9637 31.4002 55.8034C30.1815 56.7823 31.4113 57.0746 31.6069 57.0686C32.6573 57.0323 33.3548 56.5131 33.8427 56.1613C36.2621 54.1452 37.1935 50.6311 38.4143 44.2308C39.2399 39.2248 40.128 36.3679 40.252 35.9647C38.5454 34.6794 37.5222 33.0867 35.2268 32.4647C33.6532 32.0383 32.6946 32.4012 32.0202 33.254C31.2218 34.2621 31.4869 35.5726 32.2591 36.3488L33.5323 37.7601C35.0958 39.5675 35.9516 40.9728 35.629 42.8629C35.119 45.88 31.5242 48.1956 27.2742 46.8891C23.6452 45.7692 22.9698 43.2036 23.4052 41.7863C24.1623 39.3518 27.6754 40.6048 26.8952 43.1573C26.6139 44.0242 26.3992 44.0323 26.2621 44.4748C25.8024 45.9637 30.4808 47.3377 31.4032 44.3347C31.8538 42.871 30.869 42.1462 29.1603 40.3175C26.2903 37.1169 27.5474 33.7157 29.4577 32.2863C34.7812 28.3196 39.5907 34.0524 40.6048 34.8881C44.3518 23.9002 50.7389 24.2571 50.9304 24.25C53.4667 24.1683 55.3851 25.3175 55.4496 27.1381C55.4748 27.9133 55.0292 29.4153 53.4819 29.4698Z" fill="#2D2D2D"/>
</svg>
