<svg width="80" height="80" viewBox="0 0 80 80" fill="none" xmlns="http://www.w3.org/2000/svg">
<path d="M27.5 22.5C27.5 21.1172 26.3828 20 25 20C23.6172 20 22.5 21.1172 22.5 22.5V25V48.75V57.5C22.5 58.8828 23.6172 60 25 60C26.3828 60 27.5 58.8828 27.5 57.5V47.5L32.5234 46.2422C35.7344 45.4375 39.1328 45.8125 42.0938 47.2891C45.5469 49.0156 49.5547 49.2266 53.1641 47.8672L55.875 46.8516C56.8516 46.4844 57.5 45.5547 57.5 44.5078V25.1641C57.5 23.3672 55.6094 22.1953 54 23L53.25 23.375C49.6328 25.1875 45.375 25.1875 41.7578 23.375C39.0156 22 35.8672 21.6562 32.8906 22.3984L27.5 23.75V22.5Z" fill="#2D2D2D"/>
</svg>
