<svg width="80" height="80" viewBox="0 0 80 80" fill="none" xmlns="http://www.w3.org/2000/svg">
<path d="M17.2733 57.4527C12.7926 57.1774 9.14649 56.1194 6.94465 54.4556C5.88507 53.6549 5.26237 52.7095 5.08898 51.6381C4.96814 50.8915 4.97142 28.9547 5.09247 28.298C5.21538 27.6313 5.4174 27.1916 5.88851 26.5653C6.8307 25.3129 8.96159 24.1387 11.6261 23.4039C15.341 22.3794 20.5164 22.2105 24.7463 22.9756C29.005 23.746 31.9612 25.3279 32.9565 27.3691L33.2383 27.947V39.997V52.047L32.9727 52.6092C31.9889 54.6912 28.8717 56.3202 24.4491 57.0634C22.2502 57.4329 19.4361 57.5856 17.2733 57.4527ZM23.0054 54.7784C26.7245 54.2644 29.5308 53.1727 30.5383 51.8481L30.8181 51.4802V49.6559C30.8181 48.6526 30.7986 47.8316 30.7748 47.8316C30.751 47.8316 30.4166 48.0005 30.0318 48.2068C28.2381 49.1685 25.4405 49.9115 22.411 50.2306C20.8458 50.3955 17.0657 50.3714 15.5324 50.1867C12.7774 49.8548 10.2278 49.1688 8.52548 48.3014C8.01835 48.043 7.58182 47.8316 7.55542 47.8315C7.45657 47.8313 7.5906 51.533 7.69613 51.7176C7.85715 51.9993 8.62987 52.6634 9.15741 52.9735C10.6515 53.8516 13.5938 54.6381 16.3391 54.8932C17.6193 55.0121 21.8402 54.9395 23.0054 54.7784ZM21.0098 47.8327C24.1831 47.615 26.8058 47.027 28.6277 46.1248C29.4331 45.726 29.7232 45.5329 30.2092 45.072C30.8209 44.492 30.8181 44.5053 30.8181 42.2296V40.1958L29.7778 40.7146C27.0516 42.0741 23.5857 42.7411 19.2264 42.7453C14.5733 42.7498 10.6839 41.953 8.03817 40.4534L7.54988 40.1766V42.2844V44.3922L7.76173 44.6801C9.30939 46.7838 15.3491 48.221 21.0098 47.8327ZM22.326 40.1226C26.473 39.6589 29.5169 38.5367 30.5654 37.0852L30.8181 36.7354V34.6618C30.8181 33.5213 30.7982 32.5882 30.7739 32.5882C30.7497 32.5882 30.5779 32.6843 30.3923 32.8018C29.1355 33.5974 26.5137 34.426 24.0815 34.7962C22.1946 35.0833 20.7348 35.1666 18.4197 35.1193C14.2648 35.0343 11.0613 34.3715 8.44162 33.0547L7.54988 32.6064V34.6454C7.54988 36.974 7.53813 36.9254 8.26159 37.5885C9.50738 38.7303 12.4363 39.7212 15.6173 40.0771C16.061 40.1268 16.5387 40.1808 16.6788 40.1972C17.4639 40.289 21.2904 40.2385 22.326 40.1226ZM21.5193 32.5849C25.9138 32.2604 29.8343 30.8657 30.6416 29.3396C30.9089 28.8344 30.8417 28.4779 30.3802 27.9521C29.3055 26.7277 26.615 25.7264 23.0054 25.2075C22.1558 25.0853 21.3846 25.0549 19.1415 25.055C16.1035 25.0551 14.9527 25.1653 12.8999 25.6526C10.8734 26.1337 9.10433 26.9007 8.28134 27.655C7.32902 28.5278 7.29706 29.1177 8.15903 29.9128C10.2651 31.8556 15.9628 32.9951 21.5193 32.5849ZM66.3516 45.4573V31.4158H69.3128V42.9991H75V45.4573H66.3516ZM63.4492 38.4169C63.4492 39.9902 63.1681 41.3537 62.6059 42.5074C62.0437 43.6611 61.1743 44.5002 59.9977 45.0246L63.3707 48.8005H59.5662L56.9972 45.654H56.7815C55.2649 45.654 54.0098 45.3524 53.0162 44.7493C52.0356 44.1462 51.3035 43.3006 50.8198 42.2124C50.3491 41.1242 50.1138 39.8525 50.1138 38.3972C50.1138 36.9419 50.3491 35.6768 50.8198 34.6017C51.3035 33.5266 52.0356 32.6941 53.0162 32.1041C54.0098 31.501 55.2714 31.1995 56.8011 31.1995C58.3177 31.1995 59.5662 31.501 60.5468 32.1041C61.5273 32.6941 62.2529 33.5332 62.7236 34.6214C63.2073 35.6964 63.4492 36.9616 63.4492 38.4169ZM53.2319 38.4169C53.2319 39.8853 53.513 41.0456 54.0752 41.8978C54.6373 42.7368 55.5395 43.1564 56.7815 43.1564C58.0496 43.1564 58.9583 42.7368 59.5074 41.8978C60.0565 41.0456 60.331 39.8853 60.331 38.4169C60.331 36.9485 60.0565 35.7948 59.5074 34.9557C58.9583 34.1035 58.0562 33.6774 56.8011 33.6774C55.546 33.6774 54.6373 34.1035 54.0752 34.9557C53.513 35.7948 53.2319 36.9485 53.2319 38.4169ZM48.1919 41.5634C48.1919 42.809 47.7408 43.8054 46.8387 44.5527C45.9497 45.2869 44.6815 45.654 43.0342 45.654C41.5569 45.654 40.2364 45.3721 39.0728 44.8083V42.0354C39.7396 42.3239 40.426 42.5926 41.132 42.8417C41.851 43.0777 42.5636 43.1957 43.2696 43.1957C44.0017 43.1957 44.5181 43.0581 44.8188 42.7827C45.1326 42.4943 45.2895 42.1338 45.2895 41.7011C45.2895 41.3471 45.1653 41.0456 44.9169 40.7965C44.6815 40.5474 44.3612 40.3179 43.9559 40.1082C43.5506 39.8853 43.0865 39.6493 42.5636 39.4002C42.2367 39.2429 41.8837 39.0593 41.5046 38.8495C41.1254 38.6267 40.7594 38.3579 40.4064 38.0432C40.0664 37.7155 39.7853 37.3222 39.5631 36.8633C39.3408 36.4044 39.2297 35.8538 39.2297 35.2113C39.2297 33.9527 39.6546 32.976 40.5044 32.2811C41.3542 31.5731 42.5113 31.2192 43.9755 31.2192C44.7077 31.2192 45.4006 31.3044 46.0543 31.4748C46.708 31.6452 47.4009 31.8878 48.1331 32.2024L47.1721 34.523C46.5315 34.2608 45.9562 34.0576 45.4464 33.9134C44.9365 33.7692 44.4135 33.6971 43.8775 33.6971C43.3153 33.6971 42.8839 33.8282 42.5832 34.0904C42.2825 34.3526 42.1321 34.6935 42.1321 35.113C42.1321 35.6112 42.3544 36.0045 42.7989 36.293C43.2434 36.5814 43.9036 36.9354 44.7796 37.3549C45.4987 37.6958 46.1066 38.0498 46.6034 38.4169C47.1133 38.784 47.5055 39.2166 47.7801 39.7148C48.0546 40.213 48.1919 40.8292 48.1919 41.5634Z" fill="#2D2D2D"/>
</svg>
