<svg width="80" height="80" viewBox="0 0 80 80" fill="none" xmlns="http://www.w3.org/2000/svg">
<path d="M46.25 50C47 47.5078 48.5547 45.3828 50.0938 43.2656C50.5 42.7109 50.9062 42.1562 51.2969 41.5938C52.8438 39.3672 53.75 36.6719 53.75 33.7578C53.75 26.1562 47.5938 20 40 20C32.4062 20 26.25 26.1562 26.25 33.75C26.25 36.6641 27.1563 39.3672 28.7031 41.5859C29.0938 42.1484 29.5 42.7031 29.9062 43.2578C31.4531 45.375 33.0078 47.5078 33.75 49.9922H46.25V50ZM40 60C43.4531 60 46.25 57.2031 46.25 53.75V52.5H33.75V53.75C33.75 57.2031 36.5469 60 40 60ZM33.75 33.75C33.75 34.4375 33.1875 35 32.5 35C31.8125 35 31.25 34.4375 31.25 33.75C31.25 28.9141 35.1641 25 40 25C40.6875 25 41.25 25.5625 41.25 26.25C41.25 26.9375 40.6875 27.5 40 27.5C36.5469 27.5 33.75 30.2969 33.75 33.75Z" fill="#2D2D2D"/>
</svg>
