<svg width="80" height="80" viewBox="0 0 80 80" fill="none" xmlns="http://www.w3.org/2000/svg">
<path d="M34.375 25H45.625C45.9688 25 46.25 25.2812 46.25 25.625V28.75H33.75V25.625C33.75 25.2812 34.0312 25 34.375 25ZM30 25.625V28.75H25C22.2422 28.75 20 30.9922 20 33.75V41.25H35H45H60V33.75C60 30.9922 57.7578 28.75 55 28.75H50V25.625C50 23.2109 48.0391 21.25 45.625 21.25H34.375C31.9609 21.25 30 23.2109 30 25.625ZM60 43.75H45V46.25C45 47.6328 43.8828 48.75 42.5 48.75H37.5C36.1172 48.75 35 47.6328 35 46.25V43.75H20V53.75C20 56.5078 22.2422 58.75 25 58.75H55C57.7578 58.75 60 56.5078 60 53.75V43.75Z" fill="#2D2D2D"/>
</svg>
