<svg width="80" height="80" viewBox="0 0 80 80" fill="none" xmlns="http://www.w3.org/2000/svg">
<path d="M38.3627 15.0135C38.2551 15.0232 37.913 15.0574 37.6051 15.0819C30.5034 15.7221 23.8514 19.5534 19.6383 25.442C17.2923 28.7162 15.7918 32.4303 15.2248 36.3642C15.0244 37.7374 15 38.143 15 40.0049C15 41.8668 15.0244 42.2724 15.2248 43.6456C16.5836 53.0333 23.2649 60.9207 32.3265 63.843C33.9492 64.3659 35.6598 64.7227 37.6051 64.9377C38.3627 65.0208 41.6373 65.0208 42.3949 64.9377C45.7527 64.5663 48.5973 63.7355 51.4027 62.3037C51.8328 62.0838 51.9159 62.0251 51.8573 61.9762C51.8182 61.9469 49.9853 59.4888 47.7859 56.5176L43.7879 51.1176L38.7781 43.7043C36.0215 39.6286 33.7537 36.2958 33.7341 36.2958C33.7146 36.2909 33.695 39.5846 33.6852 43.6065C33.6706 50.6485 33.6657 50.9319 33.5777 51.0981C33.4506 51.3375 33.3529 51.4353 33.1476 51.5428C32.9912 51.621 32.8543 51.6356 32.1163 51.6356H31.2708L31.0459 51.4939C30.8993 51.4011 30.7918 51.2789 30.7185 51.1372L30.6158 50.9173L30.6256 41.1191L30.6403 31.316L30.7918 31.1255C30.87 31.0228 31.0362 30.8909 31.1535 30.8274C31.3539 30.7296 31.4321 30.7198 32.2776 30.7198C33.2747 30.7198 33.4409 30.7589 33.6999 31.0424C33.7732 31.1206 36.4858 35.206 39.7312 40.1271C42.9765 45.0481 47.4145 51.7676 49.5943 55.0662L53.5533 61.0624L53.7537 60.9305C55.5279 59.7772 57.4047 58.1352 58.8905 56.4248C62.0528 52.7938 64.0909 48.3663 64.7752 43.6456C64.9756 42.2724 65 41.8668 65 40.0049C65 38.143 64.9756 37.7374 64.7752 36.3642C63.4164 26.9765 56.7351 19.0891 47.6735 16.1668C46.0753 15.6487 44.3744 15.292 42.4682 15.077C41.999 15.0281 38.7683 14.9744 38.3627 15.0135ZM48.5973 30.1334C48.8319 30.2507 49.0225 30.4755 49.0909 30.7101C49.13 30.8371 49.1398 33.5542 49.13 39.6775L49.1153 48.4641L47.566 46.089L46.0117 43.714V37.3269C46.0117 33.1975 46.0313 30.8762 46.0606 30.7638C46.1388 30.4902 46.3099 30.2751 46.5445 30.1481C46.7449 30.0455 46.8182 30.0357 47.5855 30.0357C48.3089 30.0357 48.436 30.0455 48.5973 30.1334Z" fill="#2D2D2D"/>
</svg>
