<svg width="80" height="80" viewBox="0 0 80 80" fill="none" xmlns="http://www.w3.org/2000/svg">
<path d="M38.4868 50.2405C38.4368 50.3305 38.4618 50.2905 38.4868 50.2405V50.2405ZM59.2459 42.9911C57.57 42.9906 55.9164 43.3755 54.413 44.116C53.9214 43.1244 53.4131 42.2578 53.3298 41.6079C53.2298 40.8496 53.1214 40.3997 53.2381 39.4997C53.3548 38.5998 53.8797 37.3249 53.8714 37.2332C53.863 37.1416 53.7547 36.6833 52.6798 36.675C51.6049 36.6666 50.68 36.8833 50.5725 37.1666C50.3826 37.6843 50.2349 38.2166 50.1309 38.7581C49.9392 39.733 47.9819 43.2161 46.8736 45.0326C46.507 44.3243 46.1987 43.6994 46.132 43.1994C46.032 42.4412 45.9237 41.9912 46.0404 41.0913C46.157 40.1913 46.682 38.9164 46.6736 38.8248C46.6653 38.7331 46.557 38.2748 45.4829 38.2665C44.4088 38.2582 43.4831 38.4748 43.3747 38.7581C43.2664 39.0414 43.1498 39.708 42.9331 40.3497C42.7165 40.9913 40.1092 46.7908 39.4267 48.299C39.0768 49.0656 38.7768 49.6822 38.5601 50.0989C38.5268 50.1655 38.5018 50.2072 38.4851 50.2405C38.5101 50.1989 38.5268 50.1572 38.5268 50.1739C38.3435 50.5322 38.2352 50.7321 38.2352 50.7321V50.7405C38.0935 51.0071 37.9352 51.2488 37.8602 51.2488C37.8102 51.2488 37.7019 50.5488 37.8852 49.5906C38.2768 47.5741 39.2017 44.441 39.1934 44.3327C39.1851 44.2743 39.3684 43.7327 38.5851 43.4411C37.8269 43.1661 37.5519 43.6244 37.4852 43.6244C37.4186 43.6244 37.3686 43.791 37.3686 43.791C37.3686 43.791 38.2102 40.258 35.7529 40.258C34.2196 40.258 32.0865 41.9412 31.0382 43.4661C30.38 43.8244 28.9551 44.5993 27.4552 45.4242C26.8802 45.7409 26.2886 46.0659 25.7303 46.3742C25.6887 46.3325 25.6553 46.2908 25.6137 46.2492C22.6314 43.0661 17.1252 40.8163 17.3585 36.5416C17.4419 34.9834 17.9835 30.8921 27.9468 25.9258C36.1128 21.8595 42.6415 22.9761 43.7655 25.4592C45.3821 29.0006 40.275 35.5917 31.7948 36.5416C28.5626 36.8999 26.8636 35.65 26.4386 35.1834C25.997 34.6918 25.9303 34.6668 25.7637 34.7584C25.4887 34.9084 25.6637 35.3417 25.7637 35.6C26.0137 36.2583 27.0552 37.4249 28.8293 38.0082C30.3875 38.5165 34.1772 38.7998 38.7593 37.0249C43.9072 35.0418 47.9144 29.5172 46.7395 24.8926C45.5429 20.193 37.7502 18.6514 30.3816 21.2679C25.9912 22.8261 21.2432 25.2759 17.8277 28.4673C13.7705 32.267 13.1214 35.575 13.388 36.9583C14.3371 41.8662 21.1016 45.0659 23.8088 47.4324C23.6755 47.5074 23.5505 47.5741 23.4339 47.6407C22.0765 48.3157 16.9194 51.0155 15.6287 53.8652C14.1705 57.0983 15.8703 59.4148 16.9861 59.7314C20.4683 60.698 24.0338 58.9565 25.9495 56.0984C27.8652 53.2403 27.6327 49.5072 26.7494 47.8074C26.7411 47.7824 26.7244 47.7657 26.7161 47.7407C27.0661 47.5324 27.4244 47.3241 27.7827 47.1158C28.4735 46.7075 29.1484 46.3325 29.74 46.0075C29.4067 46.9075 29.1651 47.9907 29.0401 49.5572C28.8901 51.3904 29.6484 53.7652 30.6316 54.6985C31.0649 55.1068 31.589 55.1151 31.914 55.1151C33.0639 55.1151 33.5805 54.1652 34.1547 53.032C34.8629 51.6487 35.4879 50.0405 35.4879 50.0405C35.4879 50.0405 34.7046 54.3902 36.8461 54.3902C37.6285 54.3902 38.4118 53.3819 38.7626 52.8653V52.8736C38.7626 52.8736 38.7793 52.8403 38.8209 52.7736C38.9043 52.6487 38.9459 52.5737 38.9459 52.5737V52.5487C39.2626 52.007 39.9542 50.7655 40.9949 48.7156C42.3448 46.0659 43.6355 42.7578 43.6355 42.7578C43.7603 43.485 43.9329 44.2032 44.1522 44.9076C44.3855 45.6992 44.8771 46.5658 45.2687 47.4074C44.9521 47.8407 44.7605 48.0907 44.7605 48.0907C44.7611 48.0971 44.764 48.103 44.7688 48.1074C44.5188 48.4407 44.2355 48.799 43.9439 49.1489C42.8781 50.4155 41.6107 51.8654 41.4441 52.282C41.2441 52.7736 41.2941 53.1403 41.6774 53.4236C41.9607 53.6402 42.4606 53.6736 42.9848 53.6319C43.943 53.5652 44.618 53.3319 44.9429 53.1819C45.542 52.9671 46.1083 52.6698 46.6253 52.2987C47.6669 51.5321 48.3002 50.4322 48.2418 48.9823C48.2085 48.1824 47.9502 47.3824 47.6336 46.6325C47.7252 46.4992 47.8252 46.3575 47.9169 46.2158C49.5659 43.8077 50.8408 41.1646 50.8408 41.1646C50.9655 41.8918 51.1381 42.6099 51.3574 43.3144C51.5574 43.9894 51.9482 44.731 52.3065 45.4559C50.7575 46.7141 49.7992 48.1723 49.4659 49.1306C48.8493 50.9055 49.3326 51.7054 50.2408 51.8887C50.6491 51.972 51.2324 51.7804 51.6657 51.5971C52.3092 51.3827 52.916 51.0708 53.4647 50.6721C54.5063 49.9055 55.5137 48.8306 55.4471 47.3724C55.4221 46.7141 55.2388 46.0559 54.9971 45.4226C56.3054 44.8726 58.0044 44.5726 60.1709 44.8226C64.8105 45.3642 65.7188 48.264 65.5438 49.4722C65.3688 50.6805 64.3939 51.3554 64.0689 51.5554C63.7439 51.7554 63.6439 51.8304 63.6689 51.9804C63.7106 52.197 63.8606 52.1887 64.1355 52.1387C64.5188 52.072 66.5678 51.1554 66.6595 48.914C66.7928 46.0809 64.0689 42.9644 59.2434 42.9894L59.2459 42.9911ZM23.4839 55.0485C21.9515 56.7233 19.8017 57.3566 18.8776 56.8233C17.886 56.2467 18.2776 53.7819 20.1683 51.997C21.3182 50.9138 22.8006 49.9139 23.7838 49.2973C24.0088 49.1639 24.3338 48.964 24.7338 48.7223C24.8004 48.6806 24.8337 48.664 24.8337 48.664C24.9087 48.614 24.9921 48.5723 25.0754 48.5223C25.7662 51.0554 25.1004 53.2886 23.4839 55.0468V55.0485ZM34.6796 47.4324C34.1463 48.7406 33.0222 52.0737 32.339 51.8987C31.7557 51.7487 31.3974 49.2073 32.2223 46.7075C32.6389 45.4492 33.5222 43.9494 34.0472 43.3661C34.8879 42.4245 35.8129 42.1245 36.0295 42.4995C36.3211 42.9911 35.0129 46.6158 34.6796 47.4324ZM43.9289 51.8487C43.7039 51.9654 43.4956 52.0404 43.3956 51.982C43.3206 51.9404 43.4872 51.7821 43.4872 51.7821C43.4872 51.7821 44.6455 50.5405 45.1038 49.9739C45.3704 49.6406 45.6787 49.2489 46.0112 48.8156C46.0112 48.8573 46.0195 48.899 46.0195 48.949C46.0087 50.4405 44.5763 51.4487 43.9264 51.8487H43.9289ZM51.0599 50.2239C50.8933 50.1072 50.9183 49.7156 51.4766 48.499C51.6932 48.024 52.1924 47.2241 53.0598 46.4575C53.158 46.7477 53.2114 47.0511 53.2181 47.3574C53.2098 49.2323 51.8682 49.9322 51.0608 50.2239H51.0599Z" fill="#2D2D2D"/>
</svg>
