<svg width="80" height="80" viewBox="0 0 80 80" fill="none" xmlns="http://www.w3.org/2000/svg">
<path d="M64.0568 37.7735L42.2321 15.9432C41.628 15.3396 40.8088 15.0005 39.9548 15.0005C39.1007 15.0005 38.2816 15.3396 37.6775 15.9432L33.1395 20.4778L38.8895 26.2278C41.9096 25.2077 44.769 28.0994 43.7321 31.1028L49.2745 36.6452C53.0948 35.3282 56.1026 40.105 53.2332 42.9721C50.2767 45.9286 45.3973 42.6518 46.9832 38.8047L41.8103 33.6385V47.2378C44.6339 48.6373 44.2946 51.9085 42.8237 53.3761C42.105 54.0944 41.1305 54.4979 40.1144 54.4979C39.0983 54.4979 38.1238 54.0944 37.4051 53.3761C35.4442 51.4118 36.1697 48.1407 38.6607 47.1262V33.3985C36.3393 32.4487 35.9152 29.9677 36.5804 28.3762L30.9119 22.701L15.9432 37.6719C15.3393 38.276 15 39.0951 15 39.9493C15 40.8034 15.3393 41.6226 15.9432 42.2266L37.7746 64.0569C38.3785 64.6605 39.1975 64.9995 40.0513 64.9995C40.9052 64.9995 41.7241 64.6605 42.3281 64.0569L64.0568 42.3282C64.6607 41.7241 65 40.905 65 40.0508C65 39.1967 64.6607 38.3775 64.0568 37.7735Z" fill="#2D2D2D"/>
</svg>
