<svg width="80" height="80" viewBox="0 0 80 80" fill="none" xmlns="http://www.w3.org/2000/svg">
<path d="M51.2467 25.966C49.2881 24.0074 46.1094 24.0074 44.1509 25.966L29.3814 40.7355C26.0021 44.1148 26.0021 49.5891 29.3814 52.9684C32.7607 56.3478 38.2351 56.3478 41.6144 52.9684L53.8153 40.7676C54.6902 39.8926 56.119 39.8926 56.9939 40.7676C57.8688 41.6425 57.8688 43.0713 56.9939 43.9462L44.793 56.1471C39.6558 61.2843 31.34 61.2843 26.2028 56.1471C21.0656 51.0099 21.0656 42.694 26.2028 37.5568L40.9722 22.7873C44.6887 19.0709 50.7089 19.0709 54.4253 22.7873C58.1418 26.5038 58.1418 32.524 54.4253 36.2404L40.298 50.3677C38.0023 52.6634 34.2778 52.6634 31.9821 50.3677C29.6864 48.072 29.6864 44.3476 31.9821 42.0519L43.5408 30.4932C44.4158 29.6182 45.8446 29.6182 46.7195 30.4932C47.5944 31.3681 47.5944 32.7969 46.7195 33.6718L35.1608 45.2305C34.623 45.7683 34.623 46.6513 35.1608 47.1891C35.6986 47.7269 36.5815 47.7269 37.1193 47.1891L51.2467 33.0618C53.2052 31.1032 53.2052 27.9245 51.2467 25.966Z" fill="#2D2D2D"/>
</svg>
