<svg width="80" height="80" viewBox="0 0 80 80" fill="none" xmlns="http://www.w3.org/2000/svg">
<path d="M30.2779 27.5415C30.2779 24.604 32.6599 22.222 35.5974 22.222C37.0071 22.222 38.3613 22.7845 39.3544 23.7776L40.0002 24.4234L40.6461 23.7776C41.6391 22.7845 42.9933 22.222 44.403 22.222C47.3406 22.222 49.7225 24.604 49.7225 27.5415C49.7225 28.9513 49.16 30.3055 48.167 31.2985L40.9794 38.4792C40.4377 39.0208 39.5558 39.0208 39.0141 38.4792L31.8335 31.2985C30.8404 30.3055 30.2779 28.9513 30.2779 27.5415ZM59.4588 45.5765C60.3685 46.8126 60.1046 48.5487 58.8685 49.4584L50.0767 55.9377C48.4517 57.1321 46.4933 57.778 44.4725 57.778H33.3335H22.2222C20.9931 57.778 20 56.7849 20 55.5557V51.1112C20 49.8821 20.9931 48.889 22.2222 48.889H24.7778L27.8959 46.389C29.4723 45.1251 31.4307 44.4445 33.4515 44.4445H38.8891H40.0002H44.4447C45.6739 44.4445 46.667 45.4376 46.667 46.6667C46.667 47.8959 45.6739 48.889 44.4447 48.889H40.0002H38.8891C38.278 48.889 37.778 49.389 37.778 50.0001C37.778 50.6112 38.278 51.1112 38.8891 51.1112H47.2642L55.5768 44.9862C56.8129 44.0764 58.549 44.3403 59.4588 45.5765ZM33.4446 48.889H33.3821C33.4029 48.889 33.4238 48.889 33.4446 48.889Z" fill="#2D2D2D"/>
</svg>
