<svg width="80" height="80" viewBox="0 0 80 80" fill="none" xmlns="http://www.w3.org/2000/svg">
<path d="M39.6531 58.3743C39.4562 58.3743 39.2594 58.3181 39.0813 58.2243L37.2812 57.1556C37.0094 57.0056 37.1406 56.9493 37.2344 56.9212C37.5906 56.7993 37.6656 56.7712 38.05 56.5462C38.0875 56.5275 38.1438 56.5368 38.1813 56.5556L39.5687 57.3806C39.6156 57.4087 39.6906 57.4087 39.7375 57.3806L45.1562 54.2493C45.2031 54.2212 45.2406 54.1649 45.2406 54.0993V47.8462C45.2406 47.7806 45.2125 47.7243 45.1562 47.6962L39.7375 44.5743C39.6906 44.5462 39.625 44.5462 39.5687 44.5743L34.15 47.6962C34.0938 47.7243 34.0656 47.79 34.0656 47.8462V54.0993C34.0656 54.1556 34.1031 54.2118 34.15 54.2399L35.6312 55.0931C36.4375 55.4962 36.9344 55.0181 36.9344 54.5493V48.3712C36.9344 48.2868 37 48.2118 37.0938 48.2118H37.7781C37.8625 48.2118 37.9375 48.2774 37.9375 48.3712V54.5493C37.9375 55.6274 37.3562 56.2368 36.3344 56.2368C36.025 56.2368 35.7719 56.2368 35.0875 55.8993L33.6625 55.0837C33.3156 54.8774 33.0906 54.5024 33.0906 54.0993V47.8462C33.0906 47.4431 33.3062 47.0587 33.6625 46.8618L39.0813 43.7306C39.4281 43.5337 39.8781 43.5337 40.2156 43.7306L45.6344 46.8618C45.9813 47.0681 46.2063 47.4431 46.2063 47.8462V54.0993C46.2063 54.5024 45.9906 54.8868 45.6344 55.0837L40.2156 58.215C40.0562 58.3181 39.8594 58.3743 39.6531 58.3743ZM44.0312 52.2056C44.0312 51.0337 43.2437 50.7243 41.575 50.4993C39.8875 50.2743 39.7188 50.1618 39.7188 49.7681C39.7188 49.44 39.8594 49.0087 41.1062 49.0087C42.2219 49.0087 42.6344 49.2525 42.8031 50.0025C42.8219 50.0775 42.8781 50.1243 42.9531 50.1243H43.6562C43.7031 50.1243 43.7406 50.1056 43.7688 50.0774C43.7969 50.0399 43.8156 50.0025 43.8063 49.9556C43.6938 48.6618 42.8406 48.0618 41.1062 48.0618C39.5594 48.0618 38.6406 48.7181 38.6406 49.8056C38.6406 50.9962 39.5594 51.3149 41.0406 51.4649C42.8125 51.6431 42.9531 51.8962 42.9531 52.2431C42.9531 52.8525 42.4656 53.1056 41.3219 53.1056C39.8875 53.1056 39.5687 52.7493 39.4656 52.0368C39.4562 51.9618 39.3906 51.9056 39.3063 51.9056H38.6031C38.5188 51.9056 38.4437 51.9712 38.4437 52.065C38.4437 52.9743 38.9406 54.0618 41.3125 54.0618C43.0469 54.0618 44.0312 53.3868 44.0312 52.2056ZM49.1406 47.5087C49.1406 48.0806 48.6719 48.5493 48.1 48.5493C47.5281 48.5493 47.0594 48.0806 47.0594 47.5087C47.0594 46.9181 47.5469 46.4681 48.1 46.4681C48.6625 46.4587 49.1406 46.9181 49.1406 47.5087ZM48.9719 47.5087C48.9719 47.0212 48.5781 46.6368 48.0906 46.6368C47.6125 46.6368 47.2188 47.0212 47.2188 47.5087C47.2188 47.9962 47.6125 48.3899 48.0906 48.3899C48.5781 48.3806 48.9719 47.9868 48.9719 47.5087ZM48.55 48.0899H48.3063C48.2969 48.0337 48.2594 47.7337 48.2594 47.7243C48.2406 47.6587 48.2219 47.6212 48.1375 47.6212H47.9313V48.0899H47.7063V46.9181H48.1094C48.25 46.9181 48.5219 46.9181 48.5219 47.2275C48.5219 47.4431 48.3812 47.49 48.2969 47.5181C48.4562 47.5275 48.4656 47.6306 48.4938 47.7806C48.5031 47.8743 48.5219 48.0337 48.55 48.0899ZM48.2875 47.2649C48.2875 47.1056 48.175 47.1056 48.1188 47.1056H47.9313V47.4337H48.1094C48.2594 47.4337 48.2875 47.3306 48.2875 47.2649ZM22.8719 33.9056C22.8719 33.6524 22.7406 33.4275 22.525 33.3056L16.7781 29.9962C16.6844 29.9399 16.5719 29.9118 16.4594 29.9025H16.4031C16.2906 29.9025 16.1875 29.9399 16.0844 29.9962L10.3469 33.3056C10.1313 33.4275 10 33.6618 10 33.9056L10.0094 42.8118C10.0094 42.9337 10.075 43.0462 10.1781 43.1118C10.2812 43.1775 10.4125 43.1775 10.525 43.1118L13.9375 41.1524C14.1531 41.0212 14.2844 40.7962 14.2844 40.5524V36.3899C14.2844 36.1462 14.4156 35.9118 14.6313 35.79L16.0844 34.9556C16.1969 34.8899 16.3094 34.8618 16.4312 34.8618C16.5531 34.8618 16.675 34.8899 16.7781 34.9556L18.2313 35.79C18.4469 35.9118 18.5781 36.1462 18.5781 36.3899V40.5524C18.5781 40.7962 18.7094 41.0306 18.925 41.1524L22.3375 43.1118C22.4406 43.1775 22.5813 43.1775 22.6844 43.1118C22.7875 43.0556 22.8531 42.9337 22.8531 42.8118L22.8719 33.9056ZM54.2969 24.1837V40.7212C54.2969 40.965 54.1656 41.1993 53.95 41.3212L48.2031 44.6399C47.9875 44.7618 47.725 44.7618 47.5094 44.6399L41.7625 41.3212C41.5469 41.1993 41.4156 40.965 41.4156 40.7212V34.0837C41.4156 33.8399 41.5469 33.6056 41.7625 33.4837L47.5094 30.165C47.725 30.0431 47.9875 30.0431 48.2031 30.165L49.6375 30.9899C49.7969 31.0837 50.0031 30.9618 50.0031 30.7837V21.9712C50.0031 21.7087 50.2844 21.54 50.5188 21.6712L53.9406 23.5837C54.1562 23.6962 54.2969 23.9306 54.2969 24.1837ZM49.9844 36.2681C49.9844 36.2024 49.9469 36.1462 49.9 36.1181L47.9313 34.9743C47.875 34.9462 47.8094 34.9462 47.7531 34.9743L45.7844 36.1181C45.7281 36.1462 45.7 36.2024 45.7 36.2681V38.5462C45.7 38.6118 45.7375 38.6681 45.7844 38.6962L47.7531 39.8306C47.8094 39.8587 47.875 39.8587 47.9219 39.8306L49.8906 38.6962C49.9469 38.6681 49.975 38.6118 49.975 38.5462V36.2681H49.9844ZM69.6531 36.2024C69.8687 36.0806 70 35.8462 70 35.6025V33.9993C70 33.7556 69.8687 33.5212 69.6531 33.3993L63.9438 30.0806C63.7281 29.9587 63.4656 29.9587 63.25 30.0806L57.5031 33.3993C57.2875 33.5212 57.1562 33.7556 57.1562 33.9993V40.6368C57.1562 40.8899 57.2875 41.115 57.5031 41.2368L63.2125 44.4899C63.4187 44.6118 63.6813 44.6118 63.8969 44.4899L67.3469 42.5681C67.5813 42.4368 67.5813 42.0993 67.3469 41.9681L61.5625 38.6493C61.45 38.5837 61.3844 38.4712 61.3844 38.3493V36.2681C61.3844 36.1462 61.45 36.0337 61.5625 35.9681L63.3625 34.9274C63.4656 34.8618 63.6063 34.8618 63.7094 34.9274L65.5094 35.9681C65.6125 36.0337 65.6875 36.1462 65.6875 36.2681V37.8993C65.6875 38.1618 65.9781 38.3306 66.2125 38.1993L69.6531 36.2024ZM62.4062 36.5306C62.3688 36.5587 62.3406 36.5962 62.3406 36.6431V37.9181C62.3406 37.965 62.3688 38.0118 62.4062 38.0306L63.5125 38.6681C63.55 38.6962 63.6063 38.6962 63.6438 38.6681L64.75 38.0306C64.7875 38.0024 64.8156 37.965 64.8156 37.9181V36.6431C64.8156 36.5962 64.7875 36.5493 64.75 36.5306L63.6438 35.8931C63.6063 35.8649 63.55 35.8649 63.5125 35.8931L62.4062 36.5306ZM38.575 40.6087V34.0087C38.575 33.765 38.425 33.5306 38.2094 33.4087L32.4813 30.1087C32.2844 29.9962 32.0125 29.9774 31.7875 30.1087L26.0594 33.4087C25.8438 33.5306 25.6937 33.7556 25.6937 34.0087V40.6087C25.6937 40.8712 25.8719 41.0962 26.0687 41.2087L31.8063 44.5087C32.0312 44.6399 32.2938 44.6306 32.5 44.5087L38.2188 41.2087C38.3875 41.1149 38.5094 40.9556 38.5563 40.7681C38.5656 40.7212 38.575 40.6649 38.575 40.6087ZM31.6094 28.8993L31.5344 28.9462H31.6375L31.6094 28.8993ZM38.7531 41.1056L38.7156 41.04V41.1243L38.7531 41.1056Z" fill="#2D2D2D"/>
</svg>
