<svg width="80" height="80" viewBox="0 0 80 80" fill="none" xmlns="http://www.w3.org/2000/svg">
<path d="M15 40V15H40H65V40V65H40H15V40ZM56.8758 60.3352C59.6868 59.2494 61.2094 56.7762 60.9272 53.7543C60.6392 50.6698 59.3254 49.2546 54.6643 47.0078C52.9519 46.1824 51.4221 45.3519 51.2647 45.1622C50.7248 44.5118 50.697 43.3848 51.2049 42.7392C52.1468 41.5417 53.9832 41.6695 55.2362 43.0197L56.028 43.8728L57.8557 42.6491L59.6834 41.4255L59.2499 40.8238C58.474 39.747 57.3559 38.8109 56.2222 38.2892C55.2975 37.8636 54.7383 37.7778 52.8889 37.778C50.9097 37.7781 50.5452 37.8428 49.5556 38.3692C47.2373 39.6025 46.124 41.4315 46.116 44.0201C46.1119 45.3432 46.2215 45.8165 46.7999 46.974C47.672 48.7192 48.8712 49.6437 52.4388 51.3208C55.5674 52.7916 56.1111 53.2291 56.1111 54.2756C56.1111 55.8315 55.0502 56.6266 52.9716 56.6285C51.4929 56.6302 49.9916 55.8712 49.1976 54.7214C48.9236 54.3246 48.6721 53.9633 48.6387 53.9186C48.5869 53.8493 45.0803 55.78 44.7875 56.039C44.5713 56.2303 45.568 57.724 46.4616 58.5476C48.3599 60.2974 50.5592 61.033 53.5556 60.9203C54.9653 60.8673 55.9452 60.6946 56.8758 60.3352ZM37.2222 51.4444V42.1111H40.4445H43.6667V40V37.8889H34.7778H25.8889V40V42.1111H29.1111H32.3333V51.4444V60.7778H34.7778H37.2222V51.4444Z" fill="#2D2D2D"/>
</svg>
