<svg width="80" height="80" viewBox="0 0 80 80" fill="none" xmlns="http://www.w3.org/2000/svg">
<path d="M40.2656 26.6577L32.7031 32.7827C31.4453 33.7983 31.2031 35.6264 32.1562 36.9311C33.1641 38.3217 35.125 38.5952 36.4766 37.5405L44.2344 31.5092C44.7812 31.0874 45.5625 31.1811 45.9922 31.728C46.4219 32.2749 46.3203 33.0561 45.7734 33.4858L44.1406 34.7514L55 44.7514V30.0014H54.9453L54.6406 29.8061L48.9688 26.1733C47.7734 25.4077 46.375 25.0014 44.9531 25.0014C43.25 25.0014 41.5938 25.5874 40.2656 26.6577ZM42.0469 36.3764L38.0078 39.5171C35.5469 41.4389 31.9766 40.9389 30.1328 38.4077C28.3984 36.0249 28.8359 32.6967 31.125 30.8452L37.625 25.5874C36.7188 25.2046 35.7422 25.0092 34.75 25.0092C33.2812 25.0014 31.8516 25.4389 30.625 26.2514L25 30.0014V47.5014H27.2031L34.3438 54.0171C35.875 55.4155 38.2422 55.3061 39.6406 53.7749C40.0703 53.2983 40.3594 52.7436 40.5078 52.1655L41.8359 53.3842C43.3594 54.7827 45.7344 54.6811 47.1328 53.1577C47.4844 52.7749 47.7422 52.3296 47.9062 51.8686C49.4219 52.8842 51.4844 52.6733 52.7578 51.2827C54.1562 49.7592 54.0547 47.3842 52.5312 45.9858L42.0469 36.3764ZM16.25 30.0014C15.5625 30.0014 15 30.5639 15 31.2514V47.5014C15 48.8842 16.1172 50.0014 17.5 50.0014H20C21.3828 50.0014 22.5 48.8842 22.5 47.5014V30.0014H16.25ZM18.75 45.0014C19.0815 45.0014 19.3995 45.1331 19.6339 45.3676C19.8683 45.602 20 45.9199 20 46.2514C20 46.583 19.8683 46.9009 19.6339 47.1353C19.3995 47.3697 19.0815 47.5014 18.75 47.5014C18.4185 47.5014 18.1005 47.3697 17.8661 47.1353C17.6317 46.9009 17.5 46.583 17.5 46.2514C17.5 45.9199 17.6317 45.602 17.8661 45.3676C18.1005 45.1331 18.4185 45.0014 18.75 45.0014ZM57.5 30.0014V47.5014C57.5 48.8842 58.6172 50.0014 60 50.0014H62.5C63.8828 50.0014 65 48.8842 65 47.5014V31.2514C65 30.5639 64.4375 30.0014 63.75 30.0014H57.5ZM60 46.2514C60 45.9199 60.1317 45.602 60.3661 45.3676C60.6005 45.1331 60.9185 45.0014 61.25 45.0014C61.5815 45.0014 61.8995 45.1331 62.1339 45.3676C62.3683 45.602 62.5 45.9199 62.5 46.2514C62.5 46.583 62.3683 46.9009 62.1339 47.1353C61.8995 47.3697 61.5815 47.5014 61.25 47.5014C60.9185 47.5014 60.6005 47.3697 60.3661 47.1353C60.1317 46.9009 60 46.583 60 46.2514Z" fill="#2D2D2D"/>
</svg>
