<svg width="80" height="80" viewBox="0 0 80 80" fill="none" xmlns="http://www.w3.org/2000/svg">
<path d="M50.0657 46.6675C51.2121 45.8823 52.8031 45.2027 52.8031 45.2027C52.8031 45.2027 48.2758 46.023 43.7719 46.398C38.2619 46.855 32.3424 46.9487 29.371 46.5503C22.3402 45.6128 33.2315 43.023 33.2315 43.023C33.2315 43.023 29.0084 42.7418 23.8025 45.2495C17.6608 48.2261 39.0106 49.5854 50.0657 46.6675ZM40.0751 42.9058C37.8524 37.902 30.3537 33.5075 40.0751 25.8201C52.2018 16.2343 45.9829 10 45.9829 10C48.4981 19.9022 37.1388 22.9022 33.0326 29.0544C30.2367 33.2614 34.4014 37.7731 40.0751 42.9058ZM53.4816 22.2577C53.4933 22.2577 32.9859 27.3904 42.7775 38.6871C45.667 42.0152 42.0171 45.0152 42.0171 45.0152C42.0171 45.0152 49.352 41.2183 45.9829 36.4723C42.836 32.0427 40.4261 29.8396 53.4816 22.2577ZM52.768 53.9565C52.7041 54.0681 52.6254 54.1706 52.534 54.2611C67.5432 50.312 62.0215 40.3277 54.8503 42.8589C54.463 43.0015 54.1284 43.2591 53.8911 43.5972C54.3098 43.4454 54.7402 43.3278 55.1779 43.2457C58.8044 42.4839 64.0103 48.1089 52.768 53.9565ZM58.285 61.2571C58.285 61.2571 59.9813 62.6516 56.425 63.7415C49.6515 65.7922 28.255 66.4133 22.3121 63.8235C20.1713 62.8977 24.1839 61.597 25.4473 61.3274C26.7576 61.0462 27.518 61.0931 27.518 61.0931C25.1432 59.4173 12.1578 64.386 20.92 65.804C44.813 69.6945 64.4852 64.0579 58.285 61.2571ZM32.1319 56.4056C22.9251 58.9837 37.7354 64.304 49.4573 59.2767C48.3141 58.8318 47.2105 58.2908 46.1584 57.6595C40.9291 58.6556 38.5075 58.7259 33.7579 58.1869C29.839 57.7416 32.1319 56.4056 32.1319 56.4056ZM53.1658 67.7961C43.959 69.5305 32.5998 69.3312 25.8732 68.218C25.8732 68.2063 27.2536 69.3547 34.3429 69.8117C45.1289 70.5031 61.694 69.425 62.08 64.3157C62.08 64.3157 61.3313 66.2493 53.1658 67.7961ZM48.0652 51.3666C41.1397 52.7026 37.1271 52.6674 32.0617 52.1401C28.1427 51.7299 30.7046 49.8315 30.7046 49.8315C20.5503 53.2065 36.3433 57.0267 50.5336 52.8666C49.6165 52.5422 48.7761 52.0316 48.0652 51.3666Z" fill="#2D2D2D"/>
</svg>
