<svg width="80" height="80" viewBox="0 0 80 80" fill="none" xmlns="http://www.w3.org/2000/svg">
<path d="M55.8398 32.3023C55.3125 32.1265 54.7852 31.9605 54.2578 31.8043C54.3457 31.4429 54.4238 31.0816 54.502 30.7203C55.7031 24.9 54.9121 20.2222 52.2461 18.6793C49.6777 17.2047 45.4883 18.7379 41.25 22.4293C40.8301 22.7906 40.4199 23.1714 40.0293 23.5523C39.7656 23.2984 39.4922 23.0445 39.2188 22.8004C34.7754 18.855 30.3223 17.1949 27.6563 18.7476C25.0977 20.232 24.3359 24.6363 25.4102 30.1441C25.5176 30.691 25.6348 31.2281 25.7715 31.775C25.1465 31.9507 24.5312 32.1461 23.9551 32.3511C18.7402 34.1578 15 37.0093 15 39.9586C15 43.0054 18.9844 46.0621 24.4043 47.9175C24.8438 48.064 25.2832 48.2105 25.7324 48.3375C25.5859 48.9234 25.459 49.4996 25.3418 50.0953C24.3164 55.5152 25.1172 59.8121 27.6758 61.2867C30.3125 62.8101 34.7461 61.2476 39.0625 57.4683C39.4043 57.1656 39.7461 56.8531 40.0879 56.5211C40.5176 56.941 40.9668 57.3414 41.416 57.732C45.5957 61.3257 49.7266 62.7808 52.2754 61.3062C54.9121 59.7828 55.7715 55.1636 54.6582 49.5386C54.5703 49.1089 54.4727 48.6695 54.3652 48.2203C54.6777 48.1324 54.9805 48.0347 55.2832 47.9371C60.918 46.0718 65 43.0543 65 39.9586C65 36.9996 61.1523 34.1285 55.8398 32.3023ZM42.627 24.0113C46.2598 20.8472 49.6484 19.607 51.1914 20.4957C52.8418 21.4429 53.4766 25.2711 52.4414 30.3004C52.373 30.6324 52.3047 30.9546 52.2168 31.2769C50.0488 30.7886 47.8516 30.4371 45.6445 30.2418C44.375 28.4254 42.9883 26.6871 41.4844 25.0562C41.8652 24.6949 42.2363 24.3531 42.627 24.0113ZM31.3281 45.0269C31.8262 45.8765 32.334 46.7261 32.8711 47.5562C31.3477 47.3902 29.834 47.1461 28.3398 46.8238C28.7695 45.4175 29.3066 43.9625 29.9316 42.4781C30.3809 43.3375 30.8398 44.1871 31.3281 45.0269ZM28.3691 33.2789C29.7754 32.9664 31.2695 32.7125 32.8223 32.5171C32.3047 33.3277 31.7969 34.1578 31.3184 34.9976C30.8398 35.8277 30.3711 36.6773 29.9316 37.5367C29.3164 36.0816 28.7988 34.6558 28.3691 33.2789ZM31.0449 40.0074C31.6895 38.6597 32.3926 37.3414 33.1348 36.0425C33.877 34.7437 34.6777 33.4839 35.5176 32.2437C36.9824 32.1363 38.4766 32.0777 40 32.0777C41.5234 32.0777 43.0273 32.1363 44.4824 32.2437C45.3125 33.4742 46.1035 34.7339 46.8555 36.023C47.6074 37.3121 48.3105 38.6304 48.9746 39.9683C48.3203 41.316 47.6172 42.6441 46.8652 43.9527C46.123 45.2515 45.332 46.5113 44.502 47.7613C43.0469 47.8687 41.5332 47.9175 40 47.9175C38.4668 47.9175 36.9824 47.8687 35.5469 47.7808C34.6973 46.5406 33.8965 45.2711 33.1445 43.9722C32.3926 42.6734 31.6992 41.355 31.0449 40.0074ZM48.6816 45.0074C49.1797 44.148 49.6484 43.2789 50.1074 42.4C50.7324 43.816 51.2793 45.2515 51.7578 46.7261C50.2441 47.0679 48.7109 47.3316 47.168 47.5074C47.6953 46.6871 48.1934 45.8472 48.6816 45.0074ZM50.0879 37.5367C49.6289 36.6773 49.1602 35.8179 48.6719 34.9781C48.1934 34.148 47.6953 33.3277 47.1777 32.5171C48.75 32.7125 50.2539 32.9761 51.6602 33.2984C51.2109 34.7437 50.6836 36.15 50.0879 37.5367ZM40.0195 26.5504C41.0449 27.6636 42.0117 28.8355 42.9102 30.0464C40.9766 29.9586 39.0332 29.9586 37.0996 30.0464C38.0566 28.7867 39.043 27.6148 40.0195 26.5504ZM28.6914 20.564C30.332 19.607 33.9746 20.9742 37.8125 24.3726C38.0566 24.5875 38.3008 24.8218 38.5547 25.0562C37.041 26.6871 35.6445 28.4254 34.3652 30.2418C32.1582 30.4371 29.9707 30.7789 27.8027 31.2574C27.6758 30.7593 27.5684 30.2515 27.4609 29.7437C26.543 25.0171 27.1484 21.4527 28.6914 20.564ZM26.2988 46.3062C25.8887 46.189 25.4883 46.0621 25.0879 45.9254C23.0078 45.2711 20.6445 44.2359 18.9355 42.8785C17.9492 42.1949 17.2852 41.1402 17.0996 39.9586C17.0996 38.1714 20.1855 35.8863 24.6387 34.3336C25.1953 34.1382 25.7617 33.9625 26.3281 33.7964C26.9922 35.9156 27.793 37.9957 28.7207 40.0074C27.7832 42.0484 26.9727 44.1578 26.2988 46.3062ZM37.6855 55.8765C36.0742 57.3511 34.209 58.523 32.1777 59.3238C31.0938 59.8414 29.8438 59.8902 28.7305 59.4507C27.1777 58.5523 26.5332 55.105 27.4121 50.4664C27.5195 49.9195 27.6367 49.3726 27.7734 48.8355C29.9609 49.3043 32.168 49.6265 34.4043 49.7925C35.6934 51.6187 37.1094 53.3668 38.623 55.0074C38.3105 55.3101 37.998 55.6031 37.6855 55.8765ZM40.0781 53.5035C39.082 52.4293 38.0859 51.2379 37.1191 49.9586C38.0566 49.9976 39.0234 50.0171 40 50.0171C41.0059 50.0171 41.9922 49.9976 42.9688 49.9488C42.0703 51.189 41.1035 52.3707 40.0781 53.5035ZM52.8418 56.4332C52.7539 57.6246 52.168 58.7379 51.2305 59.4898C49.6777 60.3882 46.3672 59.2164 42.793 56.15C42.3828 55.7984 41.9727 55.4175 41.5527 55.0269C43.0469 53.3765 44.4238 51.6285 45.6738 49.7925C47.9102 49.607 50.1367 49.2652 52.334 48.7671C52.4316 49.1675 52.5195 49.5679 52.5977 49.9586C53.0762 52.0679 53.1543 54.2652 52.8418 56.4332ZM54.6191 45.9351C54.3457 46.023 54.0723 46.1109 53.7891 46.189C53.1055 44.0601 52.2656 41.98 51.2988 39.9586C52.2363 37.9664 53.0273 35.9156 53.6914 33.816C54.1992 33.9625 54.6875 34.1187 55.1562 34.275C59.707 35.8375 62.9004 38.1617 62.9004 39.939C62.9004 41.8531 59.4922 44.3238 54.6191 45.9351ZM40 44.4703C42.4707 44.4703 44.4727 42.4683 44.4727 39.9976C44.4727 37.5269 42.4707 35.525 40 35.525C37.5293 35.525 35.5273 37.5269 35.5273 39.9976C35.5273 42.4683 37.5293 44.4703 40 44.4703Z" fill="#2D2D2D"/>
</svg>
